# xmcd
#
# Track frame offsets: 
#        150
#        38800
#        52302
#        84774
#        112898
#        135622
#        159322
#        180623
#
# Disc length: 2766 seconds
#
# Revision: 2
# Processed by: cddbd v1.5.2PL0 Copyright (c) Steve Scherf et al.
# Submitted via: ExactAudioCopyFreeDBPlugin 1.0
#
DISCID=5d0acc08
DTITLE=Dave Matthews Band - Warehouse 8 Vol. 7
DYEAR=2011
DGENRE=Rock
TTITLE0=Lying In The Hands of God (06.06.09)
TTITLE1=#40 (06.21.08)
TTITLE2=You Never Know (09.25.07)
TTITLE3=#34 (07.09.05)
TTITLE4=Write A Song (09.03.10)
TTITLE5=Kit Kat Jam (08.11.02)
TTITLE6=A Dream So Real (06.21.08)
TTITLE7=Christmas Song (12.20.02)
EXTD=
EXTT0=6.6.09 Comcast Theatre - Hartfort, CT
EXTT1=
EXTT2=
EXTT3=
EXTT4=
EXTT5=
EXTT6=
EXTT7=
PLAYORDER=
